# xmcd
#
# Track frame offsets:
#	150
#	13062
#	23545
#	42663
#	62128
#	70943
#	82942
#	100728
#	113746
#	126924
#	136655
#	150008
#	166835
#	180035
#	195733
#	212899
#	228148
#	242291
#
# Disc length: 3410 seconds
#
# Revision: 1
# Processed by: cddbd v1.5.2PL0 Copyright (c) Steve Scherf et al.
# Submitted via: EasyCDDAExtractor 6.2.0.3
#
DISCID=d20d5012
DTITLE=Various Artist - Country "My sounds" CD1
DYEAR=2007
DGENRE=Country
TTITLE0=Willie Nelson - Crazy
TTITLE1=Slim Whitman - Rose Marie
TTITLE2=Bobbie Gentry - Ode to Billie Joe
TTITLE3=Kenny Rogers - Coward of the county
TTITLE4=Wanda Jackson - Jambalaya (on the bayou)
TTITLE5=Glen Gampbell - Galveston
TTITLE6=Dottie West - Hey Mr. Dream Maker
TTITLE7=Barbara Mandrell - I wish that I could fall in love today
TTITLE8=Slim Whitman - Among my souvenirs
TTITLE9=Crystal Gayle - Paintin' this old town blue
TTITLE10=Mel McDaniel - Baby's got her blue jeans on
TTITLE11=Gene Watson - Nothing sure looked good on you
TTITLE12=Suzy Bogguss - I want to be a cowboy's sweetheart
TTITLE13=Juice Newton - Come to me
TTITLE14=Billy "Crash" Craddock - [You say you're]A real cowboy
TTITLE15=Deana Carter - We danced anyway
TTITLE16=Lacy J.Dalton - Still crazy after all these years
TTITLE17=T.Graham Brown - I wish that I could hurt that way again
EXTD=
EXTT0=
EXTT1=
EXTT2=
EXTT3=
EXTT4=
EXTT5=
EXTT6=
EXTT7=
EXTT8=
EXTT9=
EXTT10=
EXTT11=
EXTT12=
EXTT13=
EXTT14=
EXTT15=
EXTT16=
EXTT17=
PLAYORDER=
